<?xml version="1.0" encoding="UTF-8"?>
<svg id="Layer_1" xmlns="http://www.w3.org/2000/svg" version="1.1" viewBox="0 0 131 76">
  <!-- Generator: Adobe Illustrator 30.3.0, SVG Export Plug-In . SVG Version: 2.1.3 Build 182)  -->
  <path d="M11.6,71.1c-.9,0-1.7-.2-2.5-.5-.7-.4-1.3-.9-1.8-1.6-.4-.7-.7-1.6-.7-2.6s.1-1.3.3-1.8c.2-.6.6-1.1,1-1.5.4-.4,1-.8,1.6-1,.6-.2,1.4-.4,2.2-.4s.9,0,1.4.1c.5,0,.9.2,1.3.4v2.1c.1,0-.6,0-.6,0l-.5-1.5c-.2-.1-.5-.2-.8-.3-.3,0-.6-.1-.9-.1-.8,0-1.4.2-1.9.5-.5.3-.9.8-1.1,1.3-.2.6-.3,1.2-.3,1.9s.2,1.6.5,2.2c.3.6.7,1.1,1.2,1.4.5.3,1.1.5,1.7.5s.6,0,.9-.1c.3,0,.5-.2.8-.3l.7-1.5h.7c0,0-.4,2-.4,2-.4.2-.8.3-1.3.5s-1,.2-1.5.2ZM20,71v-.6s.7-.2.7-.2l3.2-8.1.9-.5,3.4,8.6.8.2v.6h-3.2v-.6s.9-.2.9-.2l-.9-2.3-.2-.5-1.7-4.3.4-.2-1.6,4.5-.2.5-.8,2.3,1,.2v.6h-2.7ZM22.1,68.1v-.8c.2,0,.5,0,.8,0,.3,0,.8,0,1.3,0s.9,0,1.2,0c.4,0,.6,0,.8,0v.8c-.4,0-.7,0-1.1,0-.3,0-.7,0-1,0s-.6,0-1,0c-.3,0-.7,0-1.1,0ZM34.6,71v-.6s.9-.2.9-.2v-.3c0-.2,0-.3,0-.5v-.7c0-.2,0-.5,0-.7v-2.9c0-.5,0-.9,0-1.2,0-.3,0-.6,0-.8,0-.2,0-.3,0-.3l-1-.2v-.6h3.5c1,0,1.7.2,2.2.6.5.4.8.9.8,1.7s-.1,1-.4,1.4c-.3.4-.7.7-1.2.9-.5.2-1.1.3-1.7.3h-1v-.7h.9c.6,0,1.1-.2,1.5-.5.4-.3.5-.8.5-1.3s-.2-1-.5-1.3c-.3-.3-.8-.4-1.3-.4h-.9s0,0,0,.1v6.4c0,.3,0,.5,0,.7,0,.2,0,.3,0,.4l.9.2v.6h-3.3ZM42,71.2c-.5,0-.9,0-1.2-.2-.4-.2-.7-.5-1-.9-.3-.4-.7-1-1.1-1.6l-1.1-1.9,1.2-.3,1.7,2.5c.3.4.6.8.8,1,.2.2.5.4.7.6.2.1.5.2.8.3v.5c-.1,0-.2,0-.4,0-.1,0-.2,0-.3,0ZM48.3,71v-.6s.9-.2.9-.2c0,0,0-.1,0-.3,0-.1,0-.4,0-.7,0-.3,0-.7,0-1.3v-3.2c0-.5,0-.9,0-1.2,0-.3,0-.5,0-.7,0-.1,0-.2,0-.3l-1-.2v-.6h3.4c1,0,1.8.2,2.4.7.6.4.9,1.1.9,2s-.2,1.1-.5,1.5c-.3.4-.7.8-1.2,1-.5.2-1.1.3-1.7.3s-.4,0-.7,0c-.2,0-.4,0-.6,0v-.8c.2,0,.4.1.6.2.2,0,.4,0,.5,0,.6,0,1.1-.2,1.4-.5.3-.3.5-.8.5-1.4s-.2-1.3-.6-1.6c-.4-.4-.9-.5-1.5-.5h-.8c0,0,0,.2,0,.4,0,.2,0,.5,0,.8v4.2c0,.5,0,1,0,1.3,0,.3,0,.5,0,.7,0,.1,0,.2,0,.3l1.3.2v.6h-3.6ZM67.9,71.1c-.3,0-.6,0-.8,0-.2,0-.4,0-.7,0h-5.4v-.6s.9-.2.9-.2c0,0,0-.2,0-.4,0-.2,0-.4,0-.8,0-.3,0-.7,0-1.2v-2.9c0-.5,0-.9,0-1.2,0-.3,0-.6,0-.8,0-.2,0-.3,0-.3l-1-.2v-.6h5.5c.2,0,.3,0,.5,0,.2,0,.4,0,.6,0l.3,2.1h-.7c0,.1-.5-1.2-.5-1.2,0,0-.2,0-.3,0-.1,0-.2,0-.3,0h-1.8c-.2,0-.4,0-.5,0-.1,0-.3,0-.4,0,0,0,0,.2,0,.4,0,.2,0,.4,0,.7v5.6c0,.2,0,.4,0,.6,0,.2,0,.3,0,.3.1,0,.3,0,.5,0,.2,0,.3,0,.5,0h2.1c.1,0,.3,0,.3,0,0,0,.2,0,.2,0l.8-1.5h.7c0,.1-.6,2.4-.6,2.4ZM66.1,67.8l-.2-1.1c0,0-.1,0-.3,0-.1,0-.3,0-.5,0h-1.2c-.1,0-.3,0-.4,0-.2,0-.3,0-.5,0v-.9c.2,0,.3,0,.5,0h1.6c.2,0,.3,0,.5,0,.1,0,.2,0,.3,0l.2-1.1h.7v3h-.7ZM81.7,68.8v-3.5c0-.6,0-1.1,0-1.5,0-.4,0-.7,0-.8,0-.2,0-.3,0-.3l-1.1-.2v-.6h3v.6s-.9.2-.9.2c0,0,0,.1,0,.3,0,.2,0,.5,0,.8,0,.4,0,.9,0,1.5v4.7c0,.3,0,.7,0,1.1h-.7l-5.8-7.7h.3v4.2c0,.6,0,1.1,0,1.5,0,.4,0,.7,0,.8,0,.2,0,.3,0,.3l1.1.2v.6h-3v-.6s.9-.2.9-.2c0,0,0-.2,0-.3,0-.2,0-.5,0-.8,0-.4,0-.9,0-1.5v-2.7c0-.5,0-.9,0-1.2,0-.3,0-.5,0-.7,0-.2,0-.3,0-.3l-1-.2v-.6h2.2l5.2,6.9h-.3ZM97.2,61.8l.3,2.5h-.7c0,0-.7-1.7-.7-1.7,0,0-.2,0-.3,0-.1,0-.2,0-.3,0h-1c-.2,0-.3,0-.5,0,0,0,0,.3,0,.6v4.3c0,.7,0,1.2,0,1.7,0,.5,0,.8,0,.9l1.3.2v.6h-4v-.6s1.3-.2,1.3-.2c0-.1,0-.5,0-.9,0-.5,0-1.1,0-1.7v-4.3c0-.3,0-.5,0-.6-.1,0-.3,0-.5,0h-1c0,0-.2,0-.3,0-.1,0-.2,0-.3,0l-.6,1.8h-.7c0,0,.3-2.6.3-2.6.1,0,.2,0,.4,0,.1,0,.2,0,.4,0,.1,0,.2,0,.4,0h5.2c.1,0,.2,0,.4,0,.1,0,.2,0,.4,0,.1,0,.3,0,.4,0ZM103.4,71v-.6s.9-.2.9-.2v-.3c0-.2,0-.3,0-.5v-.7c0-.2,0-.5,0-.7v-2.9c0-.5,0-.9,0-1.2,0-.3,0-.6,0-.8,0-.2,0-.3,0-.3l-1-.2v-.6h3.5c1,0,1.7.2,2.2.6.5.4.8.9.8,1.7s-.1,1-.4,1.4c-.3.4-.7.7-1.2.9-.5.2-1.1.3-1.7.3h-1v-.7h.9c.6,0,1.1-.2,1.5-.5.4-.3.5-.8.5-1.3s-.2-1-.5-1.3c-.3-.3-.8-.4-1.3-.4h-.9s0,0,0,.1v6.4c0,.3,0,.5,0,.7,0,.2,0,.3,0,.4l.9.2v.6h-3.3ZM110.8,71.2c-.5,0-.9,0-1.2-.2-.4-.2-.7-.5-1-.9-.3-.4-.7-1-1.1-1.6l-1.1-1.9,1.2-.3,1.7,2.5c.3.4.6.8.8,1,.2.2.5.4.7.6.2.1.5.2.8.3v.5c-.1,0-.2,0-.4,0-.1,0-.2,0-.3,0ZM123.6,62.6l-3.2,5,.4-1.1v2.5c0,.3,0,.5,0,.7,0,.2,0,.3,0,.4,0,0,0,.1,0,.2l1.1.2v.6h-3.6v-.6s1-.2,1-.2c0,0,0,0,0-.2,0,0,0-.2,0-.4,0-.2,0-.4,0-.7,0-.3,0-.6,0-1v-1.5l.3,1.1-3.1-5-.8-.2v-.6h3.3v.6s-.9.2-.9.2l2.3,3.7h-.2l2.2-3.7-1.1-.2v-.6h2.9v.6s-.8.2-.8.2Z"/>
  <g id="_x35_2Mjls.tif">
    <g>
      <path d="M125.9,41.6v-6.1c.1,0,.1-4,.1-4v-1.4c0,0-3.9-1.5-3.9-1.5l-2.3-1-2.6-1-3.2-1.5-6.5-2.3-6.3-2.4-1.4-.6c-4.5-1.4-8.6-3.3-13-5.2l-5.6-2.4c-2.3-1-4.5-1.9-6.7-2.9l-3.4-1.4c-.2-.1-.7-.5-.6-.8l.5-1.9c.2-.8,1.3-.2,1.7,0l8.8,3.7,15.7,6.7,2.8,1.1,7.3,2.7,8.4,3.2,3.7,1.6,5,2.4,3.2,1.8c1,.6,1.6,2.8,1.5,4.3v2.9c-.1,0-.3,8.2-.3,8.2l-.2,3.7v6.3c-.1,1.3-1.6,1.3-2.9,1.3h-1.9s-4.3,0-4.3,0h-5.1c0,0-3.2,0-3.2,0h-4.3s-5.8.1-5.8.1c-1,0-1.8.2-2.8,0-1.4-.2-2.8,0-4.1,0h-1.7s-3.5,0-3.5,0c-.6,0-1,0-1.6,0h-2c0,.1-4.1.1-4.1.1-1.7,0-3.4-.2-5.1,0s-2.9,0-4.3,0h-2.3s-56.9,0-56.9,0l-6.2-.2h-2.5c-.5-.1-1.1-.2-1.5-.5v-3.5c0,0-.2-2.9-.2-2.9,0-.9-.2-1.7,0-2.5v-.8c-.1,0-.2-9.6-.2-9.6-.2-.7,0-1.3,0-2v-1.7s0-5.6,0-5.6c.4-.5,1.1-1.3,1.7-1.5l2.5-.7,4-1.6,6.6-2.5c1.1-.4,2.2-1,3.4-1.3s2.3-.8,3.4-1.3l3.2-1.2,6.3-2.3,5.5-2.1,3.3-1.2,1.9-.8,4.2-1.5,2.7-1,3.4-1.3c1.5-.6,3-1.1,4.5-1.7s2.7-1.6,5-1.7c0,.7-.3,1.2-.6,1.8l-2.8,6.3-2.3,4.9-3.1,7-2.2,5.1-.5,1.2c-.4.8-.5,1.5-.1,2.3l3.4,7.6,3.8,8.9c.1.3.2.6.2.8-.2.9-3.7.5-5.5,0-1.5-2.2-2-4.9-3.5-7.2v7.3c-.8,0-1.5.3-2.1.2l-2.3-.2c-.2,0-.4,0-.6-.2s0-.5,0-.6v-2.4c-.1,0-.1-4.7-.1-4.7,0-1.7,0-3.2.2-5s.1-2.9.2-4.3v-1.6c.1-2.9,0-5.8,0-8.6v-4.3c1.2-.7,2.5-1.4,3.8-2,.5.4.6,1.2.3,1.8v5.5c0,0,.2.3.3.2l.2-.4,1.3-3.1c.5-1.3,1.3-2.4,1.9-3.7l1.4-2.7,1.6-3.4c0-.1,0-.4,0-.6s-.4-.1-.6,0c-1.1.5-2.5.7-3.7,1.1l-1.4.5c-1.4.5-2.7,1.1-4.1,1.6l-1.4.5-7.3,2.8-4.5,1.6-3.4,1.4c-1.1.5-2.3.8-3.4,1.2l-1.6.6-2.5,1-1.2.4-6.3,2.4-3.7,1.3-4.4,1.7c-.5.2-1,.5-1.5.8v2.7s0,2.2,0,2.2v2.5c0,0,0,14,0,14v3.6c0,0,4.4,0,4.4,0h5.1c0,0,1.9,0,1.9,0h6.1c0-.1,2.9-.3,2.9-.3h1.5c2,0,3.9,0,5.9,0h2.4c1.3,0,2.7-.2,4,0s3.1,0,4.8,0h32.5s1.4,0,1.4,0h14.8s1.6,0,1.6,0h7.9s2.6,0,2.6,0h6.4s2.2,0,2.2,0h3s4.9,0,4.9,0h2.4s1.2-.3,1.2-.3c-.2-3.5.2-6.7.6-10.1Z"/>
      <path d="M73.7,49.1c-.9,0-.8-1.4-1-1.9l-1.2-3.6-.7-3.3-.4-1.4c0-.2-.2-.6-.4-.6-.3,0-.5.3-.5.6l-.5,2.3-1.1,7c-.3,1-1.2,1.1-1.9,1.1-1.2,0-1.5-.5-1.9-1.5l-2.5-6.1-2.2-5.6-2-4.5c-.3-.7-.3-.9,0-1.6l2.1-4.3c.1-.2.3-.6.5-.6.6,0,1.5,2.7,1.9,4.3s.7,3.2,1.1,4.2l.5,1c.3.7.3,1.2,1,1.7l.8-4.5.5-4.1.8-3.8.5-2.9.3-1.5.7-4c.1-.6.1-1.4.9-1.6l1.9.8.4,3.8.6,5.3.3,1.9.6,3.8.5,2.6.4,1.4c.1,1,.1,1.8.9,2.8l.2-2.8.2-1.5.4-3,.9-4,.5-3.3.5-3.2.2-1.2c0-.6.6-.3.9-.1l3.7,1.5c0,.8,0,1.4-.2,2.1l-.8,7-.5,3-.5,2.9-.5,3.2-.4,2.3-1.2,8.1c-.1.7-.3,1.7-1.2,1.8s-1.9,0-2.9,0Z"/>
      <path d="M92.9,48c-.4.3-1.3.8-1.7.8h-4.9c-1.3,0-2.2-1.1-2.6-2.3s-.7-1.5-.7-2.1v-6.4s.1-2.5.1-2.5l.3-3.5.3-5.4c0-1.4.2-2.8.7-4.1.7-2.2,2.6-2.3,5-1.7s3.2.5,4.6,2.3c.4,1.6.7,3.2.8,4.8v2.3c0,0,0,8.9,0,8.9l-.2,2.3c-.2,1.5-.2,2.9-.5,4.4s-.2,1.8-1.2,2.4ZM89.1,44.1c.9-.2,1.5-1.1,1.5-2v-7.9c.2-1.3.4-2.8.1-4s-.1-1.2,0-2-.5-2.4-1.2-3.1-1.6-.3-2.1,0v1.7c-.1,0,0,1.6,0,1.6v9.8c0,1.8-.4,3.4.1,5.2s1.1.9,1.6.8Z"/>
      <path d="M107,46.7c-1.3,2.8-3.7,3.1-6.7,2.2s-2-.6-2.1-1.6l-.5-3.1-.2-2.5v-2.4c-.1,0,0-2,0-2,.1-1.8,0-3.3-.2-5.1s-.2-2.2,0-3.2l.3-1.6c.1-.8.1-2.1.8-2.7,1.3-1.2,3.9-1.1,5.7-.3s3.5,1.4,3.7,3.3c.5,1.4.7,2.9.7,4.4v2.4c-.1,0-.2,3.4-.2,3.4v2c-.1,0-.2,1.9-.2,1.9-.1,1.7-.3,3.4-1,5ZM102,44.3c.6.4,1.5-.1,2-.5.7-.5.7-1.2.7-2v-1.9c.1,0,.1-9.7.1-9.7,0-1.2-1.1-1.9-2.1-1.7s-1.7.7-1.7,1.7v5.8s0,2.5,0,2.5c0,1,0,2,0,3.1s-.1,2,.9,2.7Z"/>
      <path d="M28.3,49.1c-2.3.2-4.4.3-6-.8s-.7-3.9-.7-5.4l-.2-15.1c.8-2.4,5.3-4.1,7.7-4.1s1.8.6,1.8,1.7l.2,4.7v14.4s-.1,1.9-.1,1.9c-.1,1.4-1.1,2.7-2.6,2.8ZM25,44.6c.1.8,1,1.5,1.7,1.1s1.2-1.5,1.2-2.5c0-2.6.1-5.2,0-7.8s0-3.6,0-5.5,0-1.4-.4-2-1.5-.2-1.8,0c-.8.5-1,2-1,3.3v4.4c-.2,1.1.2,2.1.2,3.2.1,2.1,0,3.8.2,5.7Z"/>
      <path d="M38.8,45.8c1.3,0,1.3-2.8,1.3-4.8s-.4-1.7,0-2.5c.8-.1,1.7,0,2.5.2v6c0,.7.1,1.3-.1,2s-.6,1.4-1.4,1.8-1.9.6-3,.6c-2.1,0-4-1.1-4.3-3.3v-2.9c-.2-1-.1-1.8-.1-2.7v-5.5c.1,0,.3-2.2.3-2.2l-.2-2.2v-2.9c.1,0,.2-2.5.2-2.5,0-1.9.7-3.5,2.3-4.6s2.2-1.3,3.3-1.2,1.7.3,2.2.6c1.6.9,1.5,2.6,1.4,4.1l-.2,2.9v2.8c0,.1-.2.5-.3.6-.3.2-1.5.3-2-.2s-.4-.8-.4-1.4v-2.9c-.1-1-.2-2-.5-2.9-.5-.2-1.6-.2-1.9.1s-.5.9-.5,1.5v2.5c0,0-.3,4-.3,4-.1,2.8.2,5.6.3,8.5s0,1.5,0,2.2,0,2.1,0,3.2.9,1.1,1.3,1.1Z"/>
      <path d="M120.5,47.7c-.3.6-.8,1-1.4,1.3s-.9.4-1.2.4h-4.4c-.9,0-1.9-.5-2.6-1v-8.8c0,0,.3-6.2.3-6.2v-3.7c.2-.5.6-1.5,1.2-1.2l2.2.8,4.9,2.2c2.1.9,2.7,3.5,2.7,5.5v2.6c0,1.5.2,2.9-.2,4.4s-.3,1.4-.6,2l-1,1.8ZM118.5,42.7c.4-1.4.4-2.7.4-4.2s-.3-2.9-1.5-3.7-1.5-1-2.4-1v3.3c0,1.3.1,2.4,0,3.7l-.2,3.7c0,.4.8.8,1.2.8,1.3,0,2-1.1,2.4-2.5Z"/>
      <path d="M14.7,49.4c-1.3,0-2.7.3-3.9-.2s-.7-1.2-.6-1.9c.2-1.5-.1-3.5,0-6.1s0-1.4,0-2.1c-.1-1.3,0-2.5,0-3.8s-.2-.6-.2-2.2-.4-2.7.5-3.5,1.8-.9,2.9-.6.9,1,.9,1.6v3.9c.1,0,.3,3,.3,3,0,1.5.1,4.3,0,5.8v.9c0,.2.4.5.6.5h3.8c.4,1.4.3,1.2.1,2.6l-.3,2.1h-4.3Z"/>
    </g>
  </g>
</svg>